<?xml version="1.0" encoding="utf-8"?>
<!-- Generator: Adobe Illustrator 27.0.0, SVG Export Plug-In . SVG Version: 6.00 Build 0)  -->
<svg version="1.1" id="Layer_1" xmlns="http://www.w3.org/2000/svg" xmlns:xlink="http://www.w3.org/1999/xlink" x="0px" y="0px"
	 viewBox="0 0 220 60" style="enable-background:new 0 0 220 60;" xml:space="preserve">
<style type="text/css">
	.st0{fill:#322E7E;}
	.st1{fill:#E86225;}
	.st2{fill:#232323;}
	.st3{fill:#FFFFFF;}
</style>
<g>
	<g>
		<path d="M69.82,36.82h3.32v0.51h-2.7v2.29h2.28v0.51h-2.28v2.83h-0.61V36.82z"/>
		<path d="M76.48,43.02c-1.35,0-2.38-0.95-2.38-2.47c0-1.53,1.05-2.47,2.4-2.47c1.35,0,2.4,0.94,2.4,2.47
			C78.89,42.07,77.83,43.02,76.48,43.02z M76.48,42.49c0.9,0,1.78-0.61,1.78-1.93s-0.86-1.93-1.77-1.93c-0.91,0-1.76,0.61-1.76,1.93
			S75.56,42.49,76.48,42.49z"/>
		<path d="M80.86,42.95h-0.61v-4.79h0.61v0.85c0.26-0.59,0.82-0.94,1.64-0.94v0.64h-0.17c-0.8,0-1.47,0.36-1.47,1.56V42.95z"/>
		<path d="M88.29,38.09c0.97,0,1.62,0.52,1.9,1.12v-1.05h0.61v4.79h-0.61v-1.06c-0.28,0.61-0.95,1.13-1.9,1.13
			c-1.31,0-2.28-0.97-2.28-2.48S86.98,38.09,88.29,38.09z M88.41,38.62c-1.01,0-1.78,0.7-1.78,1.92c0,1.21,0.77,1.94,1.78,1.94
			c0.98,0,1.78-0.74,1.78-1.93C90.19,39.36,89.39,38.62,88.41,38.62z"/>
		<path d="M96.02,40.21c0-1.06-0.58-1.61-1.46-1.61c-0.9,0-1.52,0.56-1.52,1.73v2.62h-0.61v-4.79h0.61v0.82
			c0.31-0.6,0.92-0.9,1.63-0.9c1.09,0,1.95,0.67,1.95,2.07v2.81h-0.61V40.21z"/>
		<path d="M102.92,43.02c-1.36,0-2.35-0.95-2.35-2.47c0-1.53,0.97-2.47,2.35-2.47c1.4,0,2.26,1,2.26,2.22c0,0.19,0,0.32-0.02,0.48
			h-3.98c0.05,1.12,0.83,1.71,1.73,1.71c0.82,0,1.37-0.43,1.54-1.07h0.65C104.9,42.34,104.13,43.02,102.92,43.02z M101.19,40.29
			h3.37c0.03-1.11-0.78-1.68-1.67-1.68C102.03,38.62,101.26,39.18,101.19,40.29z"/>
		<path d="M108.55,38.09c0.97,0,1.62,0.52,1.9,1.12v-1.05h0.61v4.79h-0.61v-1.06c-0.28,0.61-0.95,1.13-1.9,1.13
			c-1.31,0-2.28-0.97-2.28-2.48S107.23,38.09,108.55,38.09z M108.66,38.62c-1.01,0-1.78,0.7-1.78,1.92c0,1.21,0.77,1.94,1.78,1.94
			c0.98,0,1.78-0.74,1.78-1.93C110.44,39.36,109.65,38.62,108.66,38.62z"/>
		<path d="M114.34,43.02c-1.09,0-1.85-0.54-1.93-1.42h0.63c0.05,0.53,0.51,0.9,1.29,0.9c0.68,0,1.07-0.37,1.07-0.83
			c0-1.18-2.88-0.49-2.88-2.29c0-0.71,0.68-1.3,1.69-1.3c1.03,0,1.7,0.54,1.76,1.47h-0.61c-0.04-0.54-0.43-0.94-1.16-0.94
			c-0.64,0-1.04,0.34-1.04,0.76c0,1.3,2.83,0.61,2.86,2.3C116.01,42.45,115.33,43.02,114.34,43.02z"/>
		<path d="M120.71,38.16h0.63l-2.84,7.05h-0.64l0.93-2.28l-1.97-4.77h0.68l1.63,4.09L120.71,38.16z"/>
		<path d="M122.29,41.93h0.69l-0.9,2.3h-0.43L122.29,41.93z"/>
		<path d="M126.79,36.46h0.61v2.52c0.31-0.59,0.94-0.9,1.67-0.9c1.06,0,1.91,0.67,1.91,2.07v2.81h-0.61v-2.74
			c0-1.06-0.58-1.61-1.46-1.61c-0.9,0-1.52,0.56-1.52,1.73v2.62h-0.61V36.46z"/>
		<path d="M134.64,43.02c-1.36,0-2.35-0.95-2.35-2.47c0-1.53,0.97-2.47,2.35-2.47c1.4,0,2.26,1,2.26,2.22c0,0.19,0,0.32-0.02,0.48
			h-3.98c0.05,1.12,0.83,1.71,1.73,1.71c0.82,0,1.37-0.43,1.54-1.07h0.65C136.62,42.34,135.85,43.02,134.64,43.02z M132.91,40.29
			h3.37c0.03-1.11-0.78-1.68-1.67-1.68C133.75,38.62,132.98,39.18,132.91,40.29z"/>
		<path d="M140.27,38.09c0.97,0,1.62,0.52,1.9,1.12v-1.05h0.61v4.79h-0.61v-1.06c-0.28,0.61-0.95,1.13-1.9,1.13
			c-1.31,0-2.28-0.97-2.28-2.48S138.95,38.09,140.27,38.09z M140.38,38.62c-1.01,0-1.78,0.7-1.78,1.92c0,1.21,0.77,1.94,1.78,1.94
			c0.98,0,1.78-0.74,1.78-1.93C142.17,39.36,141.37,38.62,140.38,38.62z"/>
		<path d="M144.41,36.46h0.61v6.49h-0.61V36.46z"/>
		<path d="M146.83,38.68h-0.67v-0.52h0.67v-1.2h0.62v1.2h1.32v0.52h-1.32v2.98c0,0.59,0.2,0.77,0.75,0.77h0.56v0.53h-0.66
			c-0.83,0-1.28-0.34-1.28-1.3V38.68z"/>
		<path d="M150,36.46h0.61v2.52c0.31-0.59,0.94-0.9,1.67-0.9c1.06,0,1.91,0.67,1.91,2.07v2.81h-0.61v-2.74
			c0-1.06-0.58-1.61-1.46-1.61c-0.9,0-1.52,0.56-1.52,1.73v2.62H150V36.46z"/>
		<path d="M159.1,38.16h0.63l-2.84,7.05h-0.64l0.93-2.28l-1.97-4.77h0.68l1.63,4.09L159.1,38.16z"/>
		<path d="M160.68,41.93h0.69l-0.9,2.3h-0.43L160.68,41.93z"/>
		<path d="M165.18,36.46h0.61v2.52c0.31-0.59,0.94-0.9,1.67-0.9c1.06,0,1.91,0.67,1.91,2.07v2.81h-0.61v-2.74
			c0-1.06-0.58-1.61-1.46-1.61c-0.9,0-1.52,0.56-1.52,1.73v2.62h-0.61V36.46z"/>
		<path d="M172.97,38.09c0.97,0,1.62,0.52,1.9,1.12v-1.05h0.61v4.79h-0.61v-1.06c-0.28,0.61-0.95,1.13-1.9,1.13
			c-1.31,0-2.28-0.97-2.28-2.48S171.66,38.09,172.97,38.09z M173.09,38.62c-1.01,0-1.78,0.7-1.78,1.92c0,1.21,0.77,1.94,1.78,1.94
			c0.98,0,1.78-0.74,1.78-1.93C174.87,39.36,174.07,38.62,173.09,38.62z"/>
		<path d="M179.63,38.09c1.31,0,2.28,0.96,2.28,2.46s-0.97,2.48-2.28,2.48c-0.96,0-1.62-0.53-1.9-1.12v3.32h-0.61v-7.06h0.61v1.05
			C178,38.61,178.67,38.09,179.63,38.09z M179.5,38.62c-0.97,0-1.78,0.74-1.78,1.93c0,1.19,0.81,1.93,1.78,1.93
			c1.01,0,1.78-0.73,1.78-1.94C181.28,39.33,180.51,38.62,179.5,38.62z"/>
		<path d="M185.78,38.09c1.31,0,2.28,0.96,2.28,2.46s-0.97,2.48-2.28,2.48c-0.96,0-1.62-0.53-1.9-1.12v3.32h-0.61v-7.06h0.61v1.05
			C184.16,38.61,184.82,38.09,185.78,38.09z M185.66,38.62c-0.97,0-1.78,0.74-1.78,1.93c0,1.19,0.81,1.93,1.78,1.93
			c1.01,0,1.78-0.73,1.78-1.94C187.44,39.33,186.66,38.62,185.66,38.62z"/>
		<path d="M192.74,38.16h0.63l-2.84,7.05h-0.64l0.93-2.28l-1.97-4.77h0.68l1.63,4.09L192.74,38.16z"/>
		<path d="M197.07,36.46h0.61v6.49h-0.61V36.46z"/>
		<path d="M199.16,36.8c0-0.26,0.2-0.45,0.45-0.45c0.25,0,0.45,0.18,0.45,0.45c0,0.26-0.2,0.46-0.45,0.46
			C199.37,37.26,199.16,37.06,199.16,36.8z M199.3,38.16h0.61v4.79h-0.61V38.16z"/>
		<path d="M201.63,38.16l1.61,4.19l1.61-4.19h0.65l-1.92,4.79h-0.69l-1.92-4.79H201.63z"/>
		<path d="M206.43,36.8c0-0.26,0.2-0.45,0.45-0.45s0.45,0.18,0.45,0.45c0,0.26-0.2,0.46-0.45,0.46S206.43,37.06,206.43,36.8z
			 M206.57,38.16h0.61v4.79h-0.61V38.16z"/>
		<path d="M212.4,40.21c0-1.06-0.58-1.61-1.46-1.61c-0.9,0-1.52,0.56-1.52,1.73v2.62h-0.61v-4.79h0.61v0.82
			c0.31-0.6,0.92-0.9,1.63-0.9c1.09,0,1.95,0.67,1.95,2.07v2.81h-0.61V40.21z"/>
		<path d="M216.6,38.09c0.95,0,1.62,0.51,1.9,1.11v-1.04h0.61v4.91c0,1.34-0.92,2.23-2.24,2.23c-1.24,0-2.1-0.63-2.29-1.63h0.61
			c0.2,0.65,0.81,1.1,1.69,1.1c0.91,0,1.62-0.61,1.62-1.69v-1.18c-0.28,0.61-0.95,1.13-1.9,1.13c-1.32,0-2.29-0.97-2.29-2.48
			S215.29,38.09,216.6,38.09z M216.72,38.62c-1.01,0-1.78,0.7-1.78,1.92c0,1.21,0.77,1.94,1.78,1.94c0.98,0,1.78-0.74,1.78-1.93
			C218.5,39.36,217.7,38.62,216.72,38.62z"/>
	</g>
	<g id="XMLID_1_">
		<path class="st0" d="M58.94,17.39c-0.34-0.49-0.83-0.88-1.47-1.16c-0.64-0.28-1.33-0.43-2.09-0.44c-0.99,0-1.79,0.2-2.41,0.59
			c-0.62,0.39-0.93,0.92-0.93,1.59c0,0.63,0.3,1.09,0.9,1.38c0.6,0.29,1.46,0.51,2.6,0.68c0.85,0.12,1.58,0.27,2.18,0.43
			s1.2,0.41,1.79,0.73c0.59,0.32,1.04,0.76,1.35,1.32c0.31,0.56,0.46,1.22,0.46,1.99c0,1.03-0.3,1.89-0.9,2.57s-1.32,1.17-2.18,1.45
			c-0.86,0.28-1.82,0.42-2.89,0.42c-2.95,0-5.01-1.09-6.19-3.27l1.73-1.15c0.93,1.58,2.43,2.37,4.49,2.37
			c0.63,0,1.21-0.07,1.73-0.21c0.52-0.14,0.97-0.39,1.35-0.77c0.38-0.38,0.57-0.85,0.57-1.41c0-0.73-0.33-1.27-0.98-1.62
			c-0.65-0.35-1.55-0.6-2.71-0.75c-0.66-0.08-1.22-0.18-1.7-0.29c-0.47-0.11-0.97-0.27-1.49-0.47c-0.52-0.21-0.94-0.45-1.27-0.74
			c-0.32-0.29-0.59-0.66-0.8-1.12c-0.21-0.46-0.32-0.98-0.32-1.57c0-0.71,0.16-1.34,0.49-1.89c0.33-0.55,0.77-0.98,1.32-1.3
			c0.55-0.32,1.14-0.55,1.77-0.71c0.63-0.16,1.29-0.24,1.98-0.24c2.57,0,4.36,0.81,5.37,2.43L58.94,17.39z"/>
		<path class="st0" d="M74.62,25.58h-7.8l-1.36,3.02h-2.45l6.46-14.41h2.51l6.46,14.41H76L74.62,25.58z M70.73,16.63l-3.05,6.85
			h6.09L70.73,16.63z"/>
		<path class="st0" d="M81.43,28.61V14.22h10.19v2.24h-7.88v4.38h7.49v2.14h-7.49v5.62H81.43z"/>
		<path class="st0" d="M110.08,28.63h-2.04l-1.91-5.08l-1.58-4.84l-1.58,4.86l-1.89,5.06h-2.02L93.82,14.2h2.57l3.66,11.09
			l3.72-11.09h1.48l3.81,11.09l3.58-11.09h2.57L110.08,28.63z"/>
		<path class="st0" d="M127.53,25.58h-7.8l-1.36,3.02h-2.45l6.46-14.41h2.51l6.46,14.41h-2.45L127.53,25.58z M123.64,16.63
			l-3.05,6.85h6.09L123.64,16.63z"/>
		<path class="st0" d="M144.26,28.61v-5.99h-7.61v5.99h-2.3V14.2h2.3v6.28h7.61V14.2h2.28v14.41H144.26z"/>
		<path class="st1" d="M169.51,17.57l-4.9,6.81h-0.49l-4.84-6.81v11.05h-2.3V14.22h2.68l4.75,6.75l4.73-6.75h2.68v14.41h-2.3V17.57z
			"/>
		<path class="st1" d="M186.41,25.58h-7.8l-1.36,3.02h-2.45l6.46-14.41h2.51l6.46,14.41h-2.45L186.41,25.58z M182.52,16.63
			l-3.05,6.85h6.09L182.52,16.63z"/>
		<path class="st1" d="M205.65,28.61h-2.7l-4.38-4.98h-3.05v4.98h-2.3V14.18c0.74,0,1.86,0,3.35,0.01c1.5,0.01,2.61,0.01,3.35,0.01
			c1.59,0,2.84,0.46,3.74,1.39c0.9,0.93,1.35,2.03,1.35,3.32c0,1.14-0.32,2.12-0.96,2.95c-0.64,0.83-1.62,1.34-2.95,1.53l4.3,4.8
			L205.65,28.61z M195.52,16.3v5.23h4.38c0.91,0,1.59-0.25,2.06-0.74c0.47-0.49,0.7-1.1,0.7-1.83c0-0.71-0.23-1.33-0.7-1.86
			c-0.47-0.53-1.15-0.79-2.04-0.79H195.52z"/>
		<path class="st1" d="M212.07,16.28h-4.73V14.2h11.77v2.08h-4.71v12.33h-2.33V16.28z"/>
	</g>
	<g>
		<g>
			<rect x="48.88" y="33.9" class="st2" width="170.37" height="0.14"/>
		</g>
	</g>
	<g>
		<polygon class="st1" points="22.32,24.52 19.16,22.7 16,20.87 16,19.46 19.16,21.29 22.32,23.11 		"/>
	</g>
	<g>
		<polygon class="st1" points="22.32,17.06 25,18.6 25,20.01 23.78,19.31 22.32,18.46 19.16,16.64 17.75,17.45 16.53,18.15 
			16,18.46 15.13,18.96 14.53,19.31 14.53,21.65 16,22.49 19.16,24.31 19.16,25.72 16,23.89 14.53,23.06 13.32,22.35 13.32,18.6 
			13.91,18.26 15.32,17.45 16,17.06 16.53,16.75 17.94,15.94 19.16,15.23 		"/>
	</g>
	<g>
		<polygon class="st1" points="23.78,20.92 25,21.63 25,25.38 24.4,25.72 23,26.53 22.32,26.92 21.78,27.23 20.37,28.04 
			19.16,28.75 16,26.92 13.32,25.38 13.32,23.97 14.53,24.67 16,25.52 19.16,27.34 20.56,26.53 21.78,25.83 22.32,25.52 
			23.18,25.02 23.78,24.67 23.78,22.33 22.32,21.49 19.16,19.67 19.16,18.26 22.32,20.09 		"/>
	</g>
	<g>
		<path class="st1" d="M28.1,14.58c-2.13-2.57-5.34-4.21-8.94-4.21c-3.6,0-6.81,1.64-8.94,4.21H4.95v20.83h28.42V14.58H28.1z
			 M19.16,31.9c-5.47,0-9.9-4.43-9.9-9.9c0-5.47,4.43-9.91,9.9-9.91s9.91,4.43,9.91,9.91C29.06,27.46,24.62,31.9,19.16,31.9z"/>
	</g>
	<g>
		<polygon class="st3" points="22.32,24.52 19.16,22.7 16,20.87 16,19.46 19.16,21.29 22.32,23.11 		"/>
	</g>
	<g>
		<polygon class="st3" points="25,18.6 25,20.01 23.78,19.31 22.32,18.46 19.16,16.64 17.75,17.45 16.53,18.15 16,18.46 
			15.13,18.96 14.53,19.31 14.53,21.65 16,22.49 19.16,24.31 19.16,25.72 16,23.89 14.53,23.06 13.32,22.35 13.32,18.6 13.91,18.26 
			15.32,17.45 16,17.06 16.53,16.75 17.94,15.94 19.16,15.23 22.32,17.06 		"/>
	</g>
	<g>
		<polygon class="st3" points="23.78,20.92 25,21.63 25,25.38 24.4,25.72 23,26.53 22.32,26.92 21.78,27.23 20.37,28.04 
			19.16,28.75 16,26.92 13.32,25.38 13.32,23.97 14.53,24.67 16,25.52 19.16,27.34 20.56,26.53 21.78,25.83 22.32,25.52 
			23.18,25.02 23.78,24.67 23.78,22.33 22.32,21.49 19.16,19.67 19.16,18.26 22.32,20.09 		"/>
	</g>
	<g>
		<g>
			<polygon points="25,18.6 25,20.01 23.78,19.31 22.32,18.46 19.16,16.64 17.75,17.45 16.53,18.15 16,18.46 15.13,18.96 
				14.53,19.31 14.53,21.65 16,22.49 19.16,24.31 19.16,25.72 16,23.89 14.53,23.06 13.32,22.35 13.32,18.6 13.91,18.26 
				15.32,17.45 16,17.06 16.53,16.75 17.94,15.94 19.16,15.23 22.32,17.06 			"/>
		</g>
		<g>
			<polygon points="25,21.63 25,25.38 24.4,25.72 23,26.53 22.32,26.92 21.78,27.23 20.37,28.04 19.16,28.75 16,26.92 13.32,25.38 
				13.32,23.97 14.53,24.67 16,25.52 19.16,27.34 20.56,26.53 21.78,25.83 22.32,25.52 23.18,25.02 23.78,24.67 23.78,22.33 
				22.32,21.49 19.16,19.67 19.16,18.26 22.32,20.09 23.78,20.92 			"/>
		</g>
		<g>
			<polygon points="22.32,23.11 22.32,24.52 19.16,22.7 16,20.87 16,19.46 19.16,21.29 			"/>
		</g>
	</g>
	<g>
		<g>
			<path class="st0" d="M46.79,8.44c-0.25-0.25-0.6-0.4-0.98-0.4h-9.37v29.3c0,0.63-0.52,1.14-1.15,1.14H5.79
				c-1.4,0-2.64,0.57-3.57,1.48c-0.99,0.99-1.56,2.39-1.46,3.94c0.19,2.68,2.56,4.68,5.24,4.68h3c0.86,0,1.61,0.5,2.07,1.24
				c0.84,1.31,2.29,2.16,3.96,2.16c1.66,0,3.12-0.85,3.95-2.16c0.47-0.73,1.21-1.24,2.07-1.24h7.36c0.86,0,1.6,0.5,2.06,1.24
				c0.84,1.31,2.31,2.16,3.96,2.16c2.15,0,3.98-1.44,4.54-3.4c0.12-0.43,0.19-0.85,0.19-1.32c0-0.53-0.09-1.01-0.25-1.47
				c-0.62-1.88-2.39-3.24-4.48-3.24c-1.63,0-3.08,0.83-3.92,2.08c-0.47,0.69-1.19,1.16-2.02,1.16h-7.52c-0.83,0-1.55-0.48-2.02-1.16
				c-0.85-1.25-2.29-2.08-3.92-2.08s-3.08,0.83-3.92,2.08c-0.47,0.69-1.19,1.16-2.02,1.16H5.79c-0.62,0-1.19-0.25-1.59-0.66
				c-0.54-0.53-0.8-1.36-0.58-2.19c0.27-1.01,1.26-1.65,2.29-1.65h33.33v-29.3c0-0.64,0.53-1.16,1.17-1.16h5.41
				c0.76,0,1.39-0.62,1.39-1.39C47.2,9.04,47.05,8.69,46.79,8.44z M33.32,45.78c0.31-0.23,0.7-0.37,1.11-0.37
				c0.43,0,0.79,0.14,1.1,0.37c0.45,0.33,0.74,0.87,0.74,1.47c0,0.5-0.19,0.99-0.54,1.32c-0.33,0.33-0.79,0.53-1.3,0.53
				c-0.53,0-0.98-0.19-1.3-0.53c-0.35-0.33-0.57-0.81-0.57-1.32C32.56,46.65,32.87,46.1,33.32,45.78z M13.92,45.78
				c0.31-0.23,0.7-0.37,1.11-0.37c0.4,0,0.79,0.14,1.1,0.37c0.47,0.33,0.76,0.87,0.76,1.47c0,0.5-0.21,0.99-0.54,1.32
				c-0.33,0.33-0.81,0.53-1.32,0.53c-0.53,0-0.97-0.19-1.3-0.53c-0.35-0.33-0.54-0.81-0.54-1.32C13.19,46.65,13.48,46.1,13.92,45.78
				z"/>
		</g>
	</g>
</g>
</svg>
